<?xml version="1.0" encoding="UTF-8" standalone="no"?>
<!DOCTYPE svg PUBLIC "-//W3C//DTD SVG 1.1//EN" "http://www.w3.org/Graphics/SVG/1.1/DTD/svg11.dtd">
<svg width="100%" height="100%" viewBox="0 0 1024 1024" version="1.1" xmlns="http://www.w3.org/2000/svg" xmlns:xlink="http://www.w3.org/1999/xlink" xml:space="preserve" xmlns:serif="http://www.serif.com/" style="fill-rule:evenodd;clip-rule:evenodd;stroke-linecap:round;stroke-linejoin:round;stroke-miterlimit:1.5;">
    <g transform="matrix(1,0,0,1,109.056,-66.4823)">
        <g transform="matrix(3.18426,0,0,-3.18426,91.3727,345.005)">
            <path d="M0,0L0,-59.041C0.108,-59.042 0.216,-59.046 0.323,-59.056L36.519,-62.546C38.415,-62.729 39.901,-64.255 40.033,-66.155L41.149,-82.133L72.723,-84.386L74.898,-69.639C75.18,-67.727 76.82,-66.31 78.754,-66.31L116.942,-66.31C118.875,-66.31 120.515,-67.727 120.797,-69.639L122.972,-84.386L154.547,-82.133L155.662,-66.155C155.795,-64.255 157.28,-62.73 159.176,-62.546L195.358,-59.056C195.465,-59.046 195.572,-59.042 195.68,-59.041L195.68,-54.33L195.695,-54.325L195.695,0C200.792,6.416 205.618,13.494 209.316,19.449C203.665,29.069 196.741,37.666 189.34,45.631C182.476,42.176 175.809,38.262 169.512,34.097C166.361,37.229 162.812,39.791 159.326,42.469C155.901,45.22 152.041,47.237 148.38,49.587C149.47,57.704 150.009,65.695 150.226,74.035C140.78,78.789 130.707,81.941 120.518,84.205C116.45,77.368 112.73,69.964 109.49,62.726C105.648,63.368 101.788,63.606 97.923,63.652L97.923,63.658C97.896,63.658 97.871,63.652 97.848,63.652C97.824,63.652 97.799,63.658 97.775,63.658L97.775,63.652C93.903,63.606 90.046,63.368 86.203,62.726C82.965,69.964 79.247,77.368 75.173,84.205C64.989,81.941 54.915,78.789 45.47,74.035C45.686,65.695 46.225,57.704 47.318,49.587C43.65,47.237 39.795,45.22 36.369,42.469C32.888,39.791 29.333,37.229 26.181,34.097C19.884,38.262 13.219,42.176 6.353,45.631C-1.048,37.666 -7.968,29.069 -13.621,19.449C-9.178,12.475 -4.413,5.466 -0,0Z" style="fill:rgb(71,140,191);fill-rule:nonzero;"/>
        </g>
        <g transform="matrix(3.18426,0,0,-3.18426,309.018,421.321)">
            <path d="M0,0C0,-12.052 -9.765,-21.815 -21.813,-21.815C-33.855,-21.815 -43.623,-12.052 -43.623,0C-43.623,12.044 -33.855,21.802 -21.813,21.802C-9.765,21.802 0,12.044 0,0" style="fill:white;fill-rule:nonzero;"/>
        </g>
        <g transform="matrix(3.18426,0,0,-3.18426,292.305,425.441)">
            <path d="M0,0C0,-7.994 -6.479,-14.473 -14.479,-14.473C-22.475,-14.473 -28.958,-7.994 -28.958,0C-28.958,7.994 -22.475,14.479 -14.479,14.479C-6.479,14.479 0,7.994 0,0" style="fill:rgb(65,64,66);fill-rule:nonzero;"/>
        </g>
        <g transform="matrix(3.18426,0,0,-3.18426,402.939,497.105)">
            <path d="M0,0C-3.878,0 -7.021,2.858 -7.021,6.381L-7.021,26.462C-7.021,29.982 -3.878,32.843 0,32.843C3.878,32.843 7.028,29.982 7.028,26.462L7.028,6.381C7.028,2.858 3.878,0 0,0" style="fill:white;fill-rule:nonzero;"/>
        </g>
        <g transform="matrix(3.18426,0,0,-3.18426,496.872,421.321)">
            <path d="M0,0C0,-12.052 9.765,-21.815 21.815,-21.815C33.856,-21.815 43.623,-12.052 43.623,0C43.623,12.044 33.856,21.802 21.815,21.802C9.765,21.802 0,12.044 0,0" style="fill:white;fill-rule:nonzero;"/>
        </g>
        <g transform="matrix(3.18426,0,0,-3.18426,513.589,425.441)">
            <path d="M0,0C0,-7.994 6.477,-14.473 14.471,-14.473C22.473,-14.473 28.95,-7.994 28.95,0C28.95,7.994 22.473,14.479 14.471,14.479C6.477,14.479 0,7.994 0,0" style="fill:rgb(65,64,66);fill-rule:nonzero;"/>
        </g>
    </g>
    <g transform="matrix(3.18426,0,0,-3.18426,720.144,821.708)">
        <path d="M0,0L-1.121,-16.063C-1.256,-17.999 -2.796,-19.54 -4.732,-19.679L-43.287,-22.43C-43.381,-22.437 -43.475,-22.44 -43.568,-22.44C-45.484,-22.44 -47.137,-21.034 -47.42,-19.11L-49.631,-4.116L-81.09,-4.116L-83.301,-19.11C-83.598,-21.128 -85.402,-22.579 -87.434,-22.43L-125.989,-19.679C-127.925,-19.54 -129.465,-17.999 -129.6,-16.063L-130.721,0L-163.268,3.138C-163.253,-0.36 -163.208,-4.192 -163.208,-4.955C-163.208,-39.329 -119.603,-55.851 -65.427,-56.041L-65.294,-56.041C-11.118,-55.851 32.472,-39.329 32.472,-4.955C32.472,-4.178 32.519,-0.362 32.535,3.138L0,0Z" style="fill:rgb(71,140,191);fill-rule:nonzero;"/>
    </g>
    <g transform="matrix(1,0,0,1,-10.1607,0)">
        <g transform="matrix(0.99764,0,0,0.99764,1.89401,1.85631)">
            <rect x="240.459" y="574.165" width="562.078" height="212.398" style="fill:none;stroke:rgb(65,64,66);stroke-width:21.05px;"/>
        </g>
        <g transform="matrix(1,0,0,1,0,7.77066)">
            <path d="M241.785,617.336L802.536,617.336" style="fill:none;stroke:rgb(65,64,66);stroke-width:21px;"/>
        </g>
        <g transform="matrix(1,0,0,1,-53.5312,0)">
            <path d="M412.277,574.667L412.277,786.563" style="fill:none;stroke:rgb(65,64,66);stroke-width:21px;"/>
        </g>
        <g transform="matrix(1,0,0,1,-43.1703,0)">
            <path d="M648.85,574.667L648.85,786.563" style="fill:none;stroke:rgb(65,64,66);stroke-width:21px;"/>
        </g>
        <g transform="matrix(1,0,0,1,0,-17.2681)">
            <path d="M241.785,714.526L802.536,714.526" style="fill:none;stroke:rgb(65,64,66);stroke-width:21px;"/>
        </g>
    </g>
</svg>
